# xmcd
#
# Track frame offsets:
#	150
#	7915
#	23440
#	47679
#	64001
#	83229
#	101770
#	118561
#	137119
#	154146
#	176048
#
# Disc length: 2652 seconds
#
# Revision: 0
# Processed by: cddbd v1.5.1PL0 Copyright (c) Steve Scherf et al.
# Submitted via: EasyCDDAExtractor 4.6.9.1
#
DISCID=830a5a0b
DTITLE=David Foster - Live! And At Home
DYEAR=2005
DGENRE=Blues
TTITLE0=Welcome
TTITLE1=In And Out
TTITLE2=Turn To Stone
TTITLE3=A Thousand Hills
TTITLE4=Vee-Dub
TTITLE5=Growing Tired
TTITLE6=Change My Face
TTITLE7=Sleepy Lazy Love
TTITLE8=Ghost
TTITLE9=Falling Into Place
TTITLE10=A Picture
EXTD=
EXTT0=
EXTT1=
EXTT2=
EXTT3=
EXTT4=
EXTT5=
EXTT6=
EXTT7=
EXTT8=
EXTT9=
EXTT10=
PLAYORDER=
